<?xml version="1.0" encoding="UTF-8"?>
<!-- Creator: CorelDRAW 2023 -->
<svg xmlns="http://www.w3.org/2000/svg" xmlns:xlink="http://www.w3.org/1999/xlink" xmlns:xodm="http://www.corel.com/coreldraw/odm/2003" xml:space="preserve" width="1491px" height="548px" version="1.1" style="shape-rendering:geometricPrecision; text-rendering:geometricPrecision; image-rendering:optimizeQuality; fill-rule:evenodd; clip-rule:evenodd" viewBox="0 0 1490.87 548.1">
 <defs>
  <style type="text/css">
   <![CDATA[
    .fil1 {fill:#008FB8}
    .fil4 {fill:#8D9D43}
    .fil5 {fill:#D0250B}
    .fil3 {fill:#D41E72}
    .fil2 {fill:#E72330}
    .fil0 {fill:#F4811E}
   ]]>
  </style>
 </defs>
 <g id="Layer_x0020_1">
  <metadata id="CorelCorpID_0Corel-Layer"></metadata>
  <g id="_2238863844944">
   <g id="Layer_x0020_1_0">
    <g id="_1792506809216">
     <g>
      <path class="fil0" d="M195.34 115.67c4.28,-3.41 29.62,-17.42 36.58,-20.92 18.54,-9.11 40.89,-18.23 60.4,-25.25 20.88,-7.52 61.49,-15.61 83.55,-16.17 15.83,-0.4 27.91,0.78 43.42,3.4 7.81,1.25 15.61,0.28 19.98,-6.99 4.84,-8.05 -3,-16.29 -8.59,-21.22l-5.49 -3.81c-0.34,-0.19 -0.69,-0.44 -0.93,-0.56 -7.87,-4.28 -30.47,-8.74 -39.8,-10.12 -26.06,-3.8 -56.5,-3.99 -82.4,0.85 -11.15,2.09 -22.29,4.18 -33.43,6.27l-3.94 0.72c-5.58,2.03 -13.67,3.78 -19.72,5.68l-13.77 4.93c-4.65,2.16 -9.08,3.4 -13.86,5.31 -9.36,3.74 -24.22,10.3 -32.24,14.89l-8.09 4.33c-0.09,0.07 -0.21,0.13 -0.31,0.19 -4.12,2.69 -35.17,22.35 -35.95,23.63 -7.93,12.52 -18.17,48.13 -20.61,63.52 -1.96,12.39 -3.52,24.94 -3.71,37.49 9.21,-8.68 15.79,-16.2 26.56,-24.72 17.45,-13.83 34.99,-27.53 52.35,-41.45l0 0z"></path>
      <path class="fil1" d="M369.32 432.85c-0.72,-1.65 -0.44,-0.84 -1.87,-0.46 -1.22,0.31 -2.09,0.53 -3.47,0.74 -2.21,0.32 -4.83,0.57 -6.9,1l-6.39 1.35c-2.47,0.28 -5.06,0.37 -7.31,0.99 -5.9,1.41 -12.05,1.28 -18.38,2.38 -6.84,1.15 -24.26,1.46 -31.81,1.62 -19.76,0.44 -34.49,-1.34 -53.87,-3.56 -14.24,-1.65 -32.65,-6.09 -47.1,-8.96 -7.43,-1.5 -12.77,-2.49 -19.92,-4.59 -8.52,-2.49 -14.92,-4.46 -23.44,-7.52 -17.26,-6.21 -30.77,-12.27 -47.1,-20.69 -5.06,-2.63 -14.17,-9.24 -19.35,-12.64 -3.84,-2.53 -7.68,-5.09 -11.52,-7.62 -0.12,-0.09 -0.47,-0.34 -0.59,-0.44 -0.09,-0.06 -0.19,-0.15 -0.28,-0.22 -0.1,-0.09 -0.22,-0.15 -0.31,-0.24 -1,-0.72 -1.28,-0.91 -2.25,-1.88l-18.26 -16.98c-0.09,-0.12 -0.41,-0.4 -0.53,-0.53 -0.13,-0.12 -3.18,-3.28 -6.03,-4.9 -4.46,-2.56 -11.95,-1.9 -15.63,1.53 -4.59,4.28 -5,13.52 -3.12,19.35 1.56,4.78 3.96,11.15 6.71,14.52 0.25,0.31 0.56,0.68 0.93,1.15 0.1,0.13 0.38,0.47 0.47,0.59 0.06,0.1 0.16,0.22 0.22,0.29l2.09 2.59c0.22,0.28 0.66,0.78 0.94,1.09 0.25,0.31 0.75,0.84 0.93,1.09l11.96 13.52c4.77,5.08 9.92,10.27 15.32,14.73 0.1,0.06 0.22,0.15 0.28,0.25 0.1,0.06 0.22,0.15 0.32,0.22 0.06,0.06 0.18,0.15 0.28,0.25 1.21,1.03 0.75,0.87 2.12,1.96 0.53,0.44 0.75,0.5 1.22,0.88 0.09,0.06 0.22,0.15 0.31,0.21l4.28 3.53c0.09,0.06 0.21,0.16 0.28,0.22l28.31 19.91c1.78,1.1 3.31,1.88 5.18,3.09l17.57 9.87c1.66,0.74 1.41,0.81 2.72,1.46l18.79 8.65c1.34,0.5 1.65,0.56 2.93,1.22 3.28,1.65 7.68,2.99 11.08,4.46 13.05,5.65 35.03,10.8 48.63,14.61 13.64,2.59 27.25,5.68 41.05,7.11 4.62,0.47 9.24,0.94 13.86,1.41 4.93,0.25 22.13,1.56 26.9,0.34l13.11 -7.18c0.63,-0.37 -0.09,0.03 0.94,-0.59l14.45 -9.4c0.09,-0.06 0.22,-0.15 0.28,-0.21 0.09,-0.07 0.22,-0.16 0.31,-0.22l11.02 -8.71c0.13,-0.09 0.47,-0.34 0.59,-0.44 0.94,-0.68 1.1,-0.87 1.91,-1.68l3.37 -2.87c0.06,-0.1 0.19,-0.19 0.28,-0.25l28.53 -30.03c0.47,-0.59 0.47,-0.56 0.94,-1.12 1.12,-1.44 2.4,-3.66 4.02,-4.25l0 0z"></path>
      <path class="fil2" d="M48.64 232.34c0.37,40.89 5.36,67.45 15.63,106.78 2.84,10.89 2.16,8.86 10.55,16.64 24.13,22.03 46.85,33.37 76.51,45.85 6.8,2.84 2.78,-2.09 0.4,-6.43 -11.08,-20.32 -20.25,-40.52 -27.06,-62.71 -4.77,-15.79 -9.77,-32.52 -12.86,-48.66 -0.97,-5.24 -1.87,-10.55 -3,-15.76 -0.49,-2.06 -0.65,-5.18 -0.9,-7.3 -0.31,-3 -0.72,-4.56 -1.16,-6.68 -0.4,-2.1 -0.53,-5 -0.68,-7.18 -0.47,-5.37 -1.28,-9.24 -1.59,-14.39 -1.88,-31.75 -1.81,-58.59 3.15,-89.83 0.84,-5.31 1.15,-7.15 2.4,-11.93 2.9,-11.08 4.28,-19.44 8.77,-30.18 4,-9.55 6.9,-16.58 11.64,-25.72 3.81,-7.31 5.03,-12.92 -0.65,-20.07l-1.94 -1.72c-0.47,-0.34 0,-0.12 -0.93,-0.62 -6.59,-3.47 -15.83,0.93 -21.23,4.77l-0.59 0.47c-0.09,0.06 -0.22,0.13 -0.31,0.22l-3.97 3.28c-0.34,0.31 -0.65,0.65 -1.06,1.03l-2.59 3.09c-0.09,0.12 -0.34,0.5 -0.43,0.62l-8.18 12.58c-0.6,0.87 -0.63,0.97 -1.19,1.91l-3.78 6.58c-1.62,3.25 -3.15,5.75 -4.77,9.21l-3.28 6.59c-4.81,10.58 -8.68,21.94 -12.49,33.08l-4.4 15.83c-0.46,2.18 -0.59,3.87 -1.34,5.93 -1.47,4.18 -3.99,19.23 -4.68,23.35 -0.63,3.83 -0.5,8.49 -1.44,11.98 -1.49,5.68 -2.56,33.12 -2.56,39.39l0.01 0z"></path>
      <path class="fil3" d="M439.61 332.56l-15.36 34.93c-0.78,1.75 -0.78,1.34 -1.46,2.72l-19.7 35.27c-0.06,0.09 -0.15,0.22 -0.22,0.31l-10.98 16.39c-0.41,0.59 -0.53,0.87 -0.81,1.31l-13.71 18.35c-0.06,0.1 -0.19,0.22 -0.25,0.31l-5.02 6.46c-0.72,0.97 -0.19,0.25 -0.94,1.1l-11.89 13.48c-0.06,0.09 -0.19,0.19 -0.25,0.28l-12.58 12.83c-0.06,0.06 -0.19,0.16 -0.25,0.25 -0.4,0.38 -0.65,0.59 -1.09,1l-7.15 6.31c-0.06,0.06 -0.19,0.15 -0.28,0.24l-20.32 15.42c-0.09,0.07 -0.22,0.13 -0.34,0.19 -0.81,0.5 -0.28,0.16 -1.25,0.81l-6.59 3.84c-0.09,0.06 -0.22,0.13 -0.31,0.19 -6.46,3.78 -10.61,5.87 -17.14,9.14 -23.09,11.68 -8.77,38.3 27.07,25.66 7.67,-2.71 21.6,-9.14 28.99,-13.01 6.65,-3.47 15.95,-9.77 22.73,-13.89 9.17,-5.62 18.88,-14.05 27,-21.23 5.52,-4.87 11.08,-9.77 16.6,-14.64 0.09,-0.06 0.19,-0.18 0.28,-0.25l6.15 -6.27c0.06,-0.09 0.19,-0.22 0.25,-0.28l10.15 -11.08c0.06,-0.09 0.15,-0.19 0.24,-0.28 0.07,-0.06 0.19,-0.19 0.25,-0.25 0.07,-0.09 0.19,-0.19 0.25,-0.28l33.37 -44.92c0.81,-1.25 0.75,-1.34 1.59,-2.56l9.99 -16.98c0.06,-0.12 0.13,-0.25 0.19,-0.34 0.06,-0.1 0.12,-0.25 0.19,-0.34 0.06,-0.1 0.12,-0.22 0.18,-0.32 6.65,-11.3 10.8,-22.25 16.55,-33.71 2.68,-5.58 10.2,-24.65 9.73,-30.87 -1.21,-15.79 -10.33,-43.35 -18.69,-58.27 -6.87,-12.2 -13.7,-24.41 -20.57,-36.58 -2.68,16.26 -5.09,35.89 -9.11,51.56 -3.66,14.33 -9.71,34.52 -15.49,48.01l0 -0.01z"></path>
      <path class="fil4" d="M527.1 214.11c-0.47,-0.9 0.16,0.47 -0.56,-1l-7.33 -15.45c-0.07,-0.12 -0.16,-0.25 -0.19,-0.34l-1.44 -2.72c-0.75,-1.59 -0.75,-1.28 -1.34,-2.31 -0.47,-0.78 -0.78,-1.65 -1.19,-2.37 -0.5,-0.9 -0.37,-0.59 -0.59,-0.94l-18.73 -30.05c-0.06,-0.07 -0.15,-0.19 -0.22,-0.28 -0.43,-0.63 -1,-1.6 -1.46,-2.19l-7.93 -10.77c-0.06,-0.09 -0.16,-0.22 -0.25,-0.28l-7.12 -8.86c-0.09,-0.07 -0.15,-0.19 -0.25,-0.28l-7.55 -9.09c-0.16,-0.18 -0.69,-0.81 -0.94,-1.09 -7.71,-8.8 -18.04,-18.63 -26.4,-27.43 -3.22,-3.41 -12.93,-10.9 -16.89,-14.21 -4.18,-3.46 -10.96,-9.39 -15.48,-12.14 -12.99,-6.49 -50.32,-4.18 -65.02,-1.97 -5.68,0.88 -37.92,6.4 -39.64,8.87 0.91,1.28 18.29,9.43 21.57,11.11 9.67,5.03 20.57,11.39 29.65,17.36 1.87,1.24 3.09,1.9 5.03,3.24 0.65,0.47 1.62,1.16 2.46,1.75 0.63,0.44 1.56,1.12 2.41,1.72l23.06 17.38c0.66,0.5 1.5,1.25 2.22,1.88l2.53 2.12c0.09,0.06 0.18,0.15 0.28,0.25l2.24 1.9c0.1,0.06 0.22,0.19 0.28,0.25l33.75 32.09c0.4,0.4 0.59,0.62 1,1l33.33 39.83c0.59,0.74 0.81,1.06 1.56,2.02 8.34,12.02 12.05,17.83 19.79,30.28 -0.09,-0.15 14.7,25.69 19.23,39.11 4.81,14.2 7.74,23.75 10.3,38.86 0.87,5.27 1.5,10.05 3,15.2 0.4,1.03 0.9,1.72 1.53,2.59 12.11,14.42 25.4,1.84 26.25,-13.05 0.46,-8.7 0.06,-21.03 0,-30.09 -0.22,-23.56 -5.56,-43.6 -14.08,-65.48 -1.69,-4.4 -4.9,-12.49 -6.87,-16.42l0 0z"></path>
      <path class="fil4" d="M173.46 42.63l13.11 -6.59c2.78,-1.37 6.08,-2.47 8.67,-3.81 13.71,-5.71 22.6,-9.74 36.62,-13.95 9.61,-2.87 19.94,-5.62 29.34,-8.99 -9.08,-4.34 -84.78,-12.45 -95.76,-7.99 -14.8,5.96 -20.92,39.77 -1.85,42.76l2.41 0.25c2.87,0.09 4.93,-0.37 7.46,-1.68z"></path>
      <path class="fil3" d="M517.65 170.79c-0.16,-5 -3.28,-24.69 -4.66,-31.75l-4.83 -21.03c-0.97,-2.69 -1,-5.44 -2.09,-8.28 -2.31,-7.39 -8.46,-31.68 -13.39,-35.89 -11.65,-9.93 -44.2,-4.75 -38.62,15.89l0.75 2.34c1.38,3.46 10.05,11.39 13.24,14.95 7.33,8.3 14.7,16.6 22.03,24.91 0.03,0.03 0.63,0.84 0.66,0.87l19.63 27.09c0.5,0.69 0.5,0.69 1,1.56l3.22 5.03c0.06,0.09 0.15,0.22 0.21,0.31 1.47,2.31 0.91,2.22 2.85,4z"></path>
      <path class="fil2" d="M148.86 484.95c0.88,0.31 0.59,0.28 1.22,0.93 7.58,8 9.83,11.12 19.54,19.89l4.06 3.74c0.31,0.35 0.81,0.85 1.24,1.25 0.13,0.13 0.44,0.41 0.57,0.53l0.56 0.5c0.06,0.06 0.19,0.16 0.28,0.22 10.8,9.3 38.23,35.9 51.78,36.08 17.17,0.28 37.15,-23.85 17.95,-36.24 -4.15,-2.68 -19.63,-4.24 -25.88,-5.62 -4.37,-0.93 -8.7,-1.93 -13.04,-2.93l-1.91 -0.44c-2.65,-0.93 -6.08,-1.37 -8.68,-2.24 -1.46,-0.5 -2.8,-0.63 -4.27,-0.94l-23.91 -7.71c-5.28,-2.06 -9.71,-3.18 -15.3,-5.93 -1.43,-0.69 -2.65,-1 -4.21,-1.09l0 0z"></path>
      <path class="fil1" d="M444.67 463.94c1.56,-0.78 -0.06,-0.12 1.5,-0.87 0.81,-0.38 1.12,-0.44 1.9,-0.75 0.94,-0.38 0.94,-0.44 1.72,-0.84 5.52,-3.06 11.3,-5.06 16.54,-8.34 12.45,-7.05 59.53,-32.27 63.08,-44.16 4.22,-14.21 -8.42,-42.24 -27.84,-30.28 -5.31,3.28 -9.21,14.51 -12.58,20.6 -5.49,9.89 -11.55,19.26 -17.57,28.87 -0.06,0.09 -0.13,0.22 -0.19,0.31l-19.38 26.19c-1.56,2.03 -6.75,7.31 -7.18,9.27l0 0z"></path>
      <path class="fil0" d="M35.53 230.81l0.15 -27.72 -5.24 8.96c-0.06,0.1 -0.16,0.22 -0.22,0.35 -0.22,0.37 -0.34,0.59 -0.53,1.03 -1.06,2.21 -1.65,3.65 -2.87,5.93l-8.27 17.69c-0.69,1.56 -1.94,4.25 -2.78,6 -4.72,11.45 -9.9,24.53 -13.74,36.23 -4.77,14.61 -1.37,23.98 12.65,31.44 10.51,5.58 22.72,3.8 26.46,-8.84 0.82,-2.81 -3.24,-27.9 -3.65,-33.05l-0.31 -4.31c-0.34,-5.49 -1.06,-10.61 -1.34,-16.23 -0.22,-5.65 -0.5,-11.89 -0.31,-17.48l0 0z"></path>
     </g>
     <g>
      <path class="fil5" d="M1100.15 168.63c-39.83,16.33 -32,-42.66 -30.03,-72.25l32.93 0.53c1.09,15.95 4.4,58.15 -2.9,71.72zm166.77 -35.2c-0.94,0.43 -2.09,0.96 -2.9,1.15 -0.85,0.19 -2,0.69 -3.06,0.91l-10.18 0.93c-11.2,3 -3.43,-3.4 -9.08,7.27 5.4,7.65 9.39,4.19 16.2,11.58 16.2,16.05 14.92,44.8 27.34,63.43l50.69 1.09c-16.01,-39.45 -17.23,-49.6 -44.1,-72.32 50.35,-7.83 34.8,-31.03 24.1,-50.97l41.51 -0.19 1.09 37.68 -31.74 -0.16 -0.35 18.73 31.97 0.03 0.37 65.42 44.91 1.53 0.22 -123.29 24.19 0.4 1.07 122.52 44.54 0.75 0.15 -123.3 17.01 -0.46 0 -18.2 -19.44 -0.59c-7.34,-31.66 -30.59,-53.38 -63.65,-59.84 -46.03,-9.02 -74.84,24.6 -42.94,52.88l30.33 0.62c-26.43,-46.6 38.71,-46.04 33.21,6.93l-211.59 -0.09c-11.46,-31.75 -26.91,-52.69 -62.99,-60.06 -44.54,-9.11 -78.69,20.04 -43.35,52.66l29.83 0.25c-29.18,-35.09 34.18,-55.09 33.59,6.02 -23.28,3.59 -405.46,1.72 -474.69,1.16 -14.23,-0.13 -21.76,-2.41 -31.78,4.08l-0.37 10.3c19.54,11.8 57.09,-3.71 75.1,6.84l0.5 9.49c-29.81,2.78 -37.89,-8.05 -60.43,10.86 -3.18,22.19 1.62,21.85 15.23,31.06 -11.14,12.17 -21.88,12.3 -19.6,37.73 4.84,54.03 110.53,47.6 118.86,34.25l3.18 -18.33c-99,36.52 -81.77,-55.84 -48.1,-41.14 11.87,5.19 7.9,16.8 5.94,28.03 14.51,1 22.31,3.78 36.14,-0.56 5.21,-21.85 0.41,-35.02 -14.39,-41.2 -11.42,-4.78 -16.23,-3.06 -27.56,-4.09 -15.95,-1.47 -15.01,-1.28 -15.61,-16.04 18.29,-6.93 26.88,-1.66 45.54,0.5l0.75 -32.43 37.02 -0.97 1 121.73 44.79 1.5 0.19 -123.29c25,0.19 76.72,-5.43 94.54,2.9l0.5 14.73c-29.93,-3.87 -75.85,-7.11 -73.76,29.75 1.97,34.74 47.79,24.22 72.36,34.18 0.87,37.23 -57.65,9.42 -74.48,3.87l0.03 27.15c13.86,8.56 8.21,-5.11 25.78,18.3 6.62,8.77 12.27,16.79 22.17,22.44 22.22,12.64 52.31,8.08 68.51,-6.46l0.56 -17.36c-22.16,8.24 -59.83,28.44 -67.67,-8.71 35.21,1.25 77.19,4.81 74.29,-35.67 -1.12,-15.74 -13.39,-26.16 -27.97,-28.35 -31.71,-4.77 -40.86,8.37 -45.85,-12.73 4.12,-4.62 1,-4.84 11.36,-7.43 15.95,-4.03 40.67,1.94 54,3.46l0.78 -39.98 23.29 0.03c5.15,68.54 -13.61,103.85 79.4,95.08l0.25 27.56 44.36 0.81 0.12 -123.01 24.32 -0.47 1.24 121.58 44.45 2.4 0.13 -122.58c11.7,-2.12 31.34,-2.52 43.04,-1.43 21.38,1.96 25.06,28.5 5.59,37.14l0 0.01z"></path>
      <path class="fil5" d="M747.87 404.64l96.7 0 0.22 95.42 67.2 0.34 -0.09 -233.85 -67.05 -0.03 -0.37 88.18c-17.17,4.99 -76.13,2.84 -96.89,1.56l-0.4 -89.9 -67.42 1.88 0.12 231.88 67.45 0.34 0.53 -95.82 0 0z"></path>
      <path class="fil5" d="M1129.05 316.3c29.62,-3.59 59.8,-2.24 58.77,29.66 -0.93,29.49 -32.02,30.49 -59.49,26.62l0.72 -56.28 0 0zm0.75 107.31c42.01,-3.12 73.35,4.12 103.78,-19.69 36.4,-28.47 46.07,-129.19 -54.5,-136.87 -21.25,-1.62 -100.91,-2.78 -118.48,1.44l0.12 231.6 67.39 0.28 1.69 -76.76 0 0z"></path>
      <path class="fil5" d="M1473.77 426.55c-25.53,10.36 -40.02,29.71 -81.34,17.98 -62.8,-17.79 -62.9,-102.29 -0.38,-122.08 40.17,-12.7 58.03,8.49 81.81,18.45l-0.09 -63.55c-7.52,-30.71 -194.83,-32.02 -198.64,102.75 -3.28,114.74 137.06,147.33 198.36,115.09l0.28 -68.64 0 0z"></path>
      <polygon class="fil5" points="955.75,500.62 1017.99,499.77 1017.62,341.9 954.88,341.8 "></polygon>
     </g>
    </g>
   </g>
  </g>
 </g>
</svg>
